<?xml version="1.0" encoding="iso-8859-1"?>
<!-- Generator: Adobe Illustrator 19.0.0, SVG Export Plug-In . SVG Version: 6.00 Build 0)  -->
<svg version="1.1" id="Layer_1" xmlns="http://www.w3.org/2000/svg" xmlns:xlink="http://www.w3.org/1999/xlink" x="0px" y="0px"
	 viewBox="0 0 297 297" style="enable-background:new 0 0 297 297;" xml:space="preserve">
<g>
	<g id="XMLID_42_">
		<g>
			<rect x="104.45" y="227.38" style="fill:#E67E22;" width="171.33" height="24.29"/>
			<rect x="21.22" y="227.38" style="fill:#E67E22;" width="27" height="24.29"/>
			<rect x="21.22" y="136.35" style="fill:#FFA800;" width="27" height="24.3"/>
			<rect x="104.45" y="136.35" style="fill:#FFA800;" width="171.33" height="24.3"/>
			<rect x="21.22" y="45.33" style="fill:#FFCD02;" width="27" height="24.29"/>
			<rect x="104.45" y="45.33" style="fill:#FFCD02;" width="171.33" height="24.29"/>
			<path d="M297,227.07v24.92c0,11.53-9.37,20.9-20.9,20.9H104.13c-11.52,0-20.9-9.37-20.9-20.9v-24.92
				c0-11.53,9.38-20.91,20.9-20.91H276.1C287.63,206.16,297,215.54,297,227.07z M275.78,251.67v-24.29H104.45v24.29L275.78,251.67
				L275.78,251.67z"/>
			<path d="M297,136.04v24.92c0,11.53-9.37,20.91-20.9,20.91H104.13c-11.52,0-20.9-9.38-20.9-20.91v-24.92
				c0-11.53,9.38-20.91,20.9-20.91H276.1C287.63,115.13,297,124.51,297,136.04z M275.78,160.65v-24.3H104.45v24.3H275.78z"/>
			<path d="M297,45.01v24.93c0,11.52-9.37,20.9-20.9,20.9H104.13c-11.52,0-20.9-9.38-20.9-20.9V45.01c0-11.53,9.38-20.9,20.9-20.9
				H276.1C287.63,24.11,297,33.48,297,45.01z M275.78,69.62V45.33H104.45v24.29H275.78z"/>
			<path d="M69.44,227.07v24.92c0,11.53-9.38,20.9-20.91,20.9H20.91C9.38,272.89,0,263.52,0,251.99v-24.92
				c0-11.53,9.38-20.91,20.91-20.91h27.62C60.06,206.16,69.44,215.54,69.44,227.07z M48.22,251.67v-24.29h-27v24.29L48.22,251.67
				L48.22,251.67z"/>
			<path d="M69.44,136.04v24.92c0,11.53-9.38,20.91-20.91,20.91H20.91C9.38,181.87,0,172.49,0,160.96v-24.92
				c0-11.53,9.38-20.91,20.91-20.91h27.62C60.06,115.13,69.44,124.51,69.44,136.04z M48.22,160.65v-24.3h-27v24.3H48.22z"/>
			<path d="M69.44,45.01v24.93c0,11.52-9.38,20.9-20.91,20.9H20.91C9.38,90.84,0,81.46,0,69.94V45.01c0-11.53,9.38-20.9,20.91-20.9
				h27.62C60.06,24.11,69.44,33.48,69.44,45.01z M48.22,69.62V45.33h-27v24.29H48.22z"/>
		</g>
	</g>
</g>
<g>
</g>
<g>
</g>
<g>
</g>
<g>
</g>
<g>
</g>
<g>
</g>
<g>
</g>
<g>
</g>
<g>
</g>
<g>
</g>
<g>
</g>
<g>
</g>
<g>
</g>
<g>
</g>
<g>
</g>
</svg>
