<?xml version="1.0" encoding="iso-8859-1"?>
<!-- Generator: Adobe Illustrator 19.0.0, SVG Export Plug-In . SVG Version: 6.00 Build 0)  -->
<svg version="1.1" id="Layer_1" xmlns="http://www.w3.org/2000/svg" xmlns:xlink="http://www.w3.org/1999/xlink" x="0px" y="0px"
	 viewBox="0 0 297 297" style="enable-background:new 0 0 297 297;" xml:space="preserve">
<g>
	<g id="XMLID_51_">
		<g>
			<rect x="229.85" y="19.77" style="fill:#9B59B6;" width="47.39" height="47.38"/>
			<rect x="19.77" y="124.81" style="fill:#8E44AD;" width="47.38" height="47.38"/>
			<rect x="19.77" y="19.77" style="fill:#745EC5;" width="47.38" height="47.38"/>
			<rect x="124.81" y="229.85" style="fill:#745EC5;" width="47.38" height="47.38"/>
			<rect x="19.77" y="229.85" style="fill:#5065A1;" width="47.38" height="47.38"/>
			<rect x="124.81" y="19.77" style="fill:#5065A1;" width="47.38" height="47.38"/>
			<rect x="229.85" y="124.81" style="fill:#394C81;" width="47.39" height="47.38"/>
			<rect x="124.81" y="124.81" style="fill:#B8C9F1;" width="47.38" height="47.38"/>
			<rect x="229.85" y="229.85" style="fill:#99ABD5;" width="47.39" height="47.38"/>
			<path d="M297,228.98v49.12c0,10.42-8.47,18.9-18.89,18.9h-49.13c-10.42,0-18.89-8.48-18.89-18.9v-49.12
				c0-10.42,8.47-18.9,18.89-18.9h49.13C288.53,210.08,297,218.56,297,228.98z M277.24,277.23v-47.38h-47.39v47.38H277.24z"/>
			<path d="M297,123.94v49.12c0,10.42-8.47,18.9-18.89,18.9h-49.13c-10.42,0-18.89-8.48-18.89-18.9v-49.12
				c0-10.42,8.47-18.9,18.89-18.9h49.13C288.53,105.04,297,113.52,297,123.94z M277.24,172.19v-47.38h-47.39v47.38H277.24z"/>
			<path d="M297,18.9v49.12c0,10.42-8.47,18.9-18.89,18.9h-49.13c-10.42,0-18.89-8.48-18.89-18.9V18.9c0-10.42,8.47-18.9,18.89-18.9
				h49.13C288.53,0,297,8.48,297,18.9z M277.24,67.15V19.77h-47.39v47.38H277.24z"/>
			<path d="M191.96,228.98v49.12c0,10.42-8.47,18.9-18.89,18.9h-49.13c-10.42,0-18.9-8.48-18.9-18.9v-49.12
				c0-10.42,8.48-18.9,18.9-18.9h49.13C183.49,210.08,191.96,218.56,191.96,228.98z M172.19,277.23v-47.38h-47.38v47.38H172.19z"/>
			<path d="M191.96,123.94v49.12c0,10.42-8.47,18.9-18.89,18.9h-49.13c-10.42,0-18.9-8.48-18.9-18.9v-49.12
				c0-10.42,8.48-18.9,18.9-18.9h49.13C183.49,105.04,191.96,113.52,191.96,123.94z M172.19,172.19v-47.38h-47.38v47.38H172.19z"/>
			<path d="M191.96,18.9v49.12c0,10.42-8.47,18.9-18.89,18.9h-49.13c-10.42,0-18.9-8.48-18.9-18.9V18.9c0-10.42,8.48-18.9,18.9-18.9
				h49.13C183.49,0,191.96,8.48,191.96,18.9z M172.19,67.15V19.77h-47.38v47.38H172.19z"/>
			<path d="M86.92,228.98v49.12c0,10.42-8.48,18.9-18.9,18.9H18.9C8.48,297,0,288.52,0,278.1v-49.12c0-10.42,8.48-18.9,18.9-18.9
				h49.12C78.44,210.08,86.92,218.56,86.92,228.98z M67.15,277.23v-47.38H19.77v47.38H67.15z"/>
			<path d="M86.92,123.94v49.12c0,10.42-8.48,18.9-18.9,18.9H18.9c-10.42,0-18.9-8.48-18.9-18.9v-49.12c0-10.42,8.48-18.9,18.9-18.9
				h49.12C78.44,105.04,86.92,113.52,86.92,123.94z M67.15,172.19v-47.38H19.77v47.38H67.15z"/>
			<path d="M86.92,18.9v49.12c0,10.42-8.48,18.9-18.9,18.9H18.9C8.48,86.92,0,78.44,0,68.02V18.9C0,8.48,8.48,0,18.9,0h49.12
				C78.44,0,86.92,8.48,86.92,18.9z M67.15,67.15V19.77H19.77v47.38H67.15z"/>
		</g>
	</g>
</g>
<g>
</g>
<g>
</g>
<g>
</g>
<g>
</g>
<g>
</g>
<g>
</g>
<g>
</g>
<g>
</g>
<g>
</g>
<g>
</g>
<g>
</g>
<g>
</g>
<g>
</g>
<g>
</g>
<g>
</g>
</svg>
