<?xml version="1.0" encoding="iso-8859-1"?>
<!-- Generator: Adobe Illustrator 19.0.0, SVG Export Plug-In . SVG Version: 6.00 Build 0)  -->
<svg version="1.1" id="Layer_1" xmlns="http://www.w3.org/2000/svg" xmlns:xlink="http://www.w3.org/1999/xlink" x="0px" y="0px"
	 viewBox="0 0 297 297" style="enable-background:new 0 0 297 297;" xml:space="preserve">
<g>
	<g id="XMLID_23_">
		<g>
			<path style="fill:#79302A;" d="M91.43,109.46c21.52,0,39.04,17.51,39.04,39.04s-17.52,39.04-39.04,39.04
				c-21.53,0-39.04-17.51-39.04-39.04S69.9,109.46,91.43,109.46z"/>
			<path style="fill:#D35400;" d="M205.58,76.84c39.51,0,71.66,32.15,71.66,71.66s-32.15,71.66-71.66,71.66H91.43
				c-39.52,0-71.66-32.15-71.66-71.66s32.14-71.66,71.66-71.66H205.58z M150.23,148.5c0-32.43-26.38-58.81-58.8-58.81
				c-32.43,0-58.81,26.38-58.81,58.81S59,207.31,91.43,207.31C123.85,207.31,150.23,180.93,150.23,148.5z"/>
			<path d="M205.58,57.08c50.41,0,91.42,41.01,91.42,91.42s-41.01,91.42-91.42,91.42H91.43C41.01,239.92,0,198.91,0,148.5
				s41.01-91.42,91.43-91.42H205.58z M277.24,148.5c0-39.51-32.15-71.66-71.66-71.66H91.43c-39.52,0-71.66,32.15-71.66,71.66
				s32.14,71.66,71.66,71.66h114.15C245.09,220.16,277.24,188.01,277.24,148.5z"/>
			<path d="M91.43,89.69c32.42,0,58.8,26.38,58.8,58.81s-26.38,58.81-58.8,58.81c-32.43,0-58.81-26.38-58.81-58.81
				S59,89.69,91.43,89.69z M130.47,148.5c0-21.53-17.52-39.04-39.04-39.04c-21.53,0-39.04,17.51-39.04,39.04
				s17.51,39.04,39.04,39.04C112.95,187.54,130.47,170.03,130.47,148.5z"/>
		</g>
	</g>
</g>
<g>
</g>
<g>
</g>
<g>
</g>
<g>
</g>
<g>
</g>
<g>
</g>
<g>
</g>
<g>
</g>
<g>
</g>
<g>
</g>
<g>
</g>
<g>
</g>
<g>
</g>
<g>
</g>
<g>
</g>
</svg>
