<?xml version="1.0" encoding="iso-8859-1"?>
<!-- Generator: Adobe Illustrator 19.0.0, SVG Export Plug-In . SVG Version: 6.00 Build 0)  -->
<svg version="1.1" id="Layer_1" xmlns="http://www.w3.org/2000/svg" xmlns:xlink="http://www.w3.org/1999/xlink" x="0px" y="0px"
	 viewBox="0 0 296.997 296.997" style="enable-background:new 0 0 296.997 296.997;" xml:space="preserve">
<g>
	<g id="XMLID_21_">
		<g>
			<path style="fill:#745EC5;" d="M272.276,202.737v74.11h-21.94v-74.11c0-62.5-54.94-115.3-119.98-115.3
				c-3.5,0-6.75,1.82-8.59,4.81c-1.83,2.99-1.97,6.71-0.38,9.84l14.19,27.85l-31.54-3.87l-28.65-56.98l41.58-48.36l31.67,3.89
				l-20.71,24.08c-2.56,2.99-3.16,7.2-1.51,10.78c1.64,3.57,5.21,5.87,9.15,5.87C210.946,65.347,272.276,126.977,272.276,202.737z"
				/>
			<path d="M292.426,202.737v84.19c0,5.56-4.51,10.07-10.08,10.07h-42.09c-5.56,0-10.07-4.51-10.07-10.07v-84.19
				c0-46.01-36.37-85.65-82.63-93.67l14.58,28.6c1.69,3.32,1.41,7.31-0.72,10.36c-2.14,3.05-5.78,4.68-9.48,4.22l-55.71-6.84
				c-3.34-0.41-6.26-2.47-7.77-5.48l-34.09-67.79c-1.82-3.64-1.29-8.01,1.37-11.1l49.47-57.53c2.2-2.56,5.53-3.84,8.87-3.43
				l55.7,6.84c3.69,0.45,6.83,2.89,8.17,6.36c1.34,3.46,0.67,7.39-1.76,10.2l-19.83,23.08c34.11,4.49,65.6,20.02,90.26,44.83
				C276.156,121.117,292.426,160.667,292.426,202.737z M272.276,276.847v-74.11c0-75.76-61.33-137.39-136.71-137.39
				c-3.94,0-7.51-2.3-9.15-5.87c-1.65-3.58-1.05-7.79,1.51-10.78l20.71-24.08l-31.67-3.89l-41.58,48.36l28.65,56.98l31.54,3.87
				l-14.19-27.85c-1.59-3.13-1.45-6.85,0.38-9.84c1.84-2.99,5.09-4.81,8.59-4.81c65.04,0,119.98,52.8,119.98,115.3v74.11H272.276z"
				/>
			<path d="M70.696,2.437c4.21,3.62,4.69,9.98,1.07,14.2l-45.1,52.45l31.07,61.8c2.5,4.97,0.49,11.02-4.48,13.52
				c-1.45,0.73-2.99,1.08-4.51,1.08c-3.69,0-7.24-2.03-9.01-5.56l-34.09-67.79c-1.83-3.64-1.29-8.01,1.36-11.1l49.48-57.53
				C60.106-0.713,66.466-1.193,70.696,2.437z"/>
		</g>
	</g>
</g>
<g>
</g>
<g>
</g>
<g>
</g>
<g>
</g>
<g>
</g>
<g>
</g>
<g>
</g>
<g>
</g>
<g>
</g>
<g>
</g>
<g>
</g>
<g>
</g>
<g>
</g>
<g>
</g>
<g>
</g>
</svg>
