<?xml version="1.0" encoding="iso-8859-1"?>
<!-- Generator: Adobe Illustrator 19.0.0, SVG Export Plug-In . SVG Version: 6.00 Build 0)  -->
<svg version="1.1" id="Layer_1" xmlns="http://www.w3.org/2000/svg" xmlns:xlink="http://www.w3.org/1999/xlink" x="0px" y="0px"
	 viewBox="0 0 301.52 301.52" style="enable-background:new 0 0 301.52 301.52;" xml:space="preserve">
<g id="XMLID_25_">
	<g>
		<path style="fill:#BDC3C7;" d="M190.39,232.97V253l-39.63,26.42L111.13,253v-20.03l17.51,11.68c3.08,2.05,7.03,2.24,10.3,0.49
			c3.26-1.74,5.3-5.14,5.3-8.84V109.37c0-3.6,2.92-6.52,6.52-6.52s6.52,2.92,6.52,6.52V236.3c0,3.7,2.04,7.1,5.3,8.84
			c3.26,1.75,7.22,1.56,10.3-0.49L190.39,232.97z"/>
		<path style="fill:#3498DB;" d="M227.69,73.25c28.4,0,51.51,23.11,51.51,51.51s-23.11,51.5-51.51,51.5h-50.34v-66.89
			c0-14.66-11.93-26.59-26.59-26.59s-26.59,11.93-26.59,26.59v66.89H73.84c-28.4,0-51.51-23.1-51.51-51.5s23.11-51.51,51.51-51.51
			c3.28,0,6.6,0.32,9.87,0.96c2.63,0.51,5.36-0.05,7.58-1.57c2.21-1.51,3.73-3.85,4.21-6.49c4.85-26.7,28.09-46.08,55.26-46.08
			c27.18,0,50.42,19.38,55.27,46.08c0.48,2.64,1.99,4.98,4.21,6.49c2.21,1.52,4.94,2.08,7.58,1.57
			C221.09,73.57,224.41,73.25,227.69,73.25z"/>
		<path d="M227.69,53.18c39.46,0,71.57,32.11,71.57,71.58c0,39.46-32.11,71.57-71.57,71.57h-50.34v21.22l17.51-11.67
			c3.08-2.06,7.04-2.25,10.3-0.5c3.26,1.74,5.3,5.14,5.3,8.84v44.15c0,3.36-1.68,6.49-4.47,8.35l-49.67,33.11
			c-1.68,1.13-3.62,1.69-5.56,1.69s-3.88-0.56-5.57-1.69l-49.66-33.11c-2.8-1.86-4.47-4.99-4.47-8.35v-44.15
			c0-3.7,2.04-7.1,5.3-8.84c3.26-1.75,7.22-1.56,10.3,0.5l17.51,11.67v-21.22H73.84c-39.47,0-71.58-32.11-71.58-71.57
			c0-39.47,32.11-71.58,71.58-71.58c1.39,0,2.8,0.04,4.2,0.13C87.89,21.92,117.1,0,150.76,0s62.88,21.92,72.73,53.31
			C224.89,53.22,226.29,53.18,227.69,53.18z M279.2,124.76c0-28.4-23.11-51.51-51.51-51.51c-3.28,0-6.6,0.32-9.87,0.96
			c-2.64,0.51-5.37-0.05-7.58-1.57c-2.22-1.51-3.73-3.85-4.21-6.49c-4.85-26.7-28.09-46.08-55.27-46.08
			c-27.17,0-50.41,19.38-55.26,46.08c-0.48,2.64-2,4.98-4.21,6.49c-2.22,1.52-4.95,2.08-7.58,1.57c-3.27-0.64-6.59-0.96-9.87-0.96
			c-28.4,0-51.51,23.11-51.51,51.51s23.11,51.5,51.51,51.5h50.33v-66.89c0-14.66,11.93-26.59,26.59-26.59s26.59,11.93,26.59,26.59
			v66.89h50.34C256.09,176.26,279.2,153.16,279.2,124.76z M190.39,253v-20.03l-17.51,11.68c-3.08,2.05-7.04,2.24-10.3,0.49
			c-3.26-1.74-5.3-5.14-5.3-8.84V109.37c0-3.6-2.92-6.52-6.52-6.52s-6.52,2.92-6.52,6.52V236.3c0,3.7-2.04,7.1-5.3,8.84
			c-3.27,1.75-7.22,1.56-10.3-0.49l-17.51-11.68V253l39.63,26.42L190.39,253z"/>
	</g>
</g>
<g>
</g>
<g>
</g>
<g>
</g>
<g>
</g>
<g>
</g>
<g>
</g>
<g>
</g>
<g>
</g>
<g>
</g>
<g>
</g>
<g>
</g>
<g>
</g>
<g>
</g>
<g>
</g>
<g>
</g>
</svg>
