<?xml version="1.0" encoding="iso-8859-1"?>
<!-- Generator: Adobe Illustrator 19.0.0, SVG Export Plug-In . SVG Version: 6.00 Build 0)  -->
<svg version="1.1" id="Layer_1" xmlns="http://www.w3.org/2000/svg" xmlns:xlink="http://www.w3.org/1999/xlink" x="0px" y="0px"
	 viewBox="0 0 297 297" style="enable-background:new 0 0 297 297;" xml:space="preserve">
<g>
	<g id="XMLID_37_">
		<g>
			<path style="fill:#F47CC3;" d="M260.665,164.2c0.01,30.17-11.72,58.53-33.05,79.87c-21.32,21.33-49.68,33.08-79.85,33.08
				c-55.35,0-102.17-39.55-111.32-94.05c-0.52-3.05,0.84-5.21,1.7-6.22c0.85-1.01,2.74-2.7,5.81-2.7c1.87,0,3.59,0.68,4.93,1.84
				s2.29,2.79,2.61,4.68c3.82,22.47,15.51,43.03,32.95,57.89c8.82,7.52,18.84,13.35,29.57,17.3c10.73,3.95,22.15,6.02,33.75,6.02
				c26.07,0,50.59-10.17,69.04-28.62s28.62-42.97,28.62-69.04c0-53.84-43.81-97.65-97.66-97.65h-10.91c-3.69,0-7.07,2.05-8.79,5.31
				c-1.71,3.27-1.48,7.22,0.62,10.25l11.1,16.1h-19.46l-26.13-39.21l26.13-39.2h19.62l-11.3,16.63c-2.07,3.04-2.28,6.97-0.56,10.22
				s5.09,5.28,8.77,5.28h10.22C209.675,51.98,260.635,102.32,260.665,164.2z"/>
			<path d="M280.516,164.19c0.02,35.47-13.79,68.82-38.86,93.91c-25.08,25.08-58.42,38.9-93.89,38.9
				c-31.58,0-62.18-11.28-86.16-31.76c-23.71-20.26-39.6-48.26-44.74-78.85c-1.34-8,0.89-16.14,6.13-22.33
				c5.23-6.18,12.87-9.73,20.96-9.73c13.45,0,24.85,9.69,27.11,23.05c3.18,18.74,12.84,34.91,26.46,46.4
				c13.62,11.48,31.2,18.28,50.24,18.28c20.77,0,40.3-8.1,55-22.81c14.71-14.7,22.81-34.23,22.81-55c0-40.1-30.5-73.21-69.52-77.36
				l10.8,15.65c2.1,3.04,2.33,6.99,0.62,10.25c-1.72,3.27-5.1,5.32-8.79,5.32h-43.67c-3.32,0-6.41-1.66-8.25-4.42l-32.76-49.13
				c-2.22-3.34-2.22-7.68,0-11.01l32.76-49.13c1.84-2.76,4.93-4.42,8.25-4.42h43.67c3.68,0,7.05,2.03,8.77,5.28
				s1.51,7.18-0.56,10.22l-11.47,16.89C225.095,36.67,280.486,94.15,280.516,164.19z M227.615,244.07
				c21.33-21.34,33.06-49.7,33.05-79.87c-0.03-61.88-50.99-112.22-113.59-112.22h-10.22c-3.68,0-7.05-2.03-8.77-5.28
				s-1.51-7.18,0.56-10.22l11.3-16.63h-19.62l-26.13,39.2l26.13,39.21h19.46l-11.1-16.1c-2.1-3.03-2.33-6.98-0.62-10.25
				c1.72-3.26,5.1-5.31,8.79-5.31h10.91c53.85,0,97.66,43.81,97.66,97.65c0,26.07-10.17,50.59-28.62,69.04s-42.97,28.62-69.04,28.62
				c-11.6,0-23.02-2.07-33.75-6.02c-10.73-3.95-20.75-9.78-29.57-17.3c-17.44-14.86-29.13-35.42-32.95-57.89
				c-0.32-1.89-1.27-3.52-2.61-4.68c-1.34-1.16-3.06-1.84-4.93-1.84c-3.07,0-4.96,1.69-5.81,2.7c-0.86,1.01-2.22,3.17-1.7,6.22
				c9.15,54.5,55.97,94.05,111.32,94.05C177.936,277.15,206.296,265.4,227.615,244.07z"/>
		</g>
	</g>
</g>
<g>
</g>
<g>
</g>
<g>
</g>
<g>
</g>
<g>
</g>
<g>
</g>
<g>
</g>
<g>
</g>
<g>
</g>
<g>
</g>
<g>
</g>
<g>
</g>
<g>
</g>
<g>
</g>
<g>
</g>
</svg>
