<?xml version="1.0" encoding="iso-8859-1"?>
<!-- Generator: Adobe Illustrator 19.0.0, SVG Export Plug-In . SVG Version: 6.00 Build 0)  -->
<svg version="1.1" id="Layer_1" xmlns="http://www.w3.org/2000/svg" xmlns:xlink="http://www.w3.org/1999/xlink" x="0px" y="0px"
	 viewBox="0 0 297.002 297.002" style="enable-background:new 0 0 297.002 297.002;" xml:space="preserve">
<g id="XMLID_36_">
	<g>
		<path style="fill:#D35400;" d="M247.916,202.742v74.11h-21.94v-74.11c0-62.5-54.95-115.31-119.98-115.31
			c-3.5,0-6.76,1.83-8.59,4.82c-1.83,2.98-1.97,6.71-0.38,9.83l14.19,27.86l-31.54-3.87l-28.65-56.98l41.58-48.36l31.67,3.89
			l-20.71,24.08c-2.57,2.99-3.16,7.2-1.52,10.78c1.65,3.57,5.22,5.87,9.16,5.87C186.586,65.352,247.916,126.982,247.916,202.742z"/>
		<path d="M268.066,202.742v84.19c0,5.56-4.51,10.07-10.08,10.07h-42.09c-5.56,0-10.07-4.51-10.07-10.07v-84.19
			c0-46.01-36.37-85.65-82.63-93.67l14.58,28.6c1.69,3.32,1.41,7.31-0.72,10.36c-2.14,3.05-5.78,4.67-9.48,4.22l-55.71-6.84
			c-3.34-0.41-6.26-2.47-7.77-5.48l-34.09-67.79c-1.82-3.64-1.29-8.01,1.37-11.1l49.47-57.53c2.2-2.56,5.53-3.84,8.87-3.44
			l55.7,6.84c3.69,0.46,6.83,2.9,8.17,6.37c1.34,3.46,0.66,7.39-1.76,10.2l-19.84,23.07c34.12,4.5,65.61,20.02,90.27,44.84
			C251.796,121.122,268.066,160.672,268.066,202.742z M247.916,276.852v-74.11c0-75.76-61.33-137.39-136.71-137.39
			c-3.94,0-7.51-2.3-9.16-5.87c-1.64-3.58-1.05-7.79,1.52-10.78l20.71-24.08l-31.67-3.89l-41.58,48.36l28.65,56.98l31.54,3.87
			l-14.19-27.86c-1.59-3.12-1.45-6.85,0.38-9.83c1.83-2.99,5.09-4.82,8.59-4.82c65.03,0,119.98,52.81,119.98,115.31v74.11H247.916z"
			/>
	</g>
</g>
<g>
</g>
<g>
</g>
<g>
</g>
<g>
</g>
<g>
</g>
<g>
</g>
<g>
</g>
<g>
</g>
<g>
</g>
<g>
</g>
<g>
</g>
<g>
</g>
<g>
</g>
<g>
</g>
<g>
</g>
</svg>
