<?xml version="1.0" encoding="iso-8859-1"?>
<!-- Generator: Adobe Illustrator 19.0.0, SVG Export Plug-In . SVG Version: 6.00 Build 0)  -->
<svg version="1.1" id="Layer_1" xmlns="http://www.w3.org/2000/svg" xmlns:xlink="http://www.w3.org/1999/xlink" x="0px" y="0px"
	 viewBox="0 0 296 296" style="enable-background:new 0 0 296 296;" xml:space="preserve">
<g id="XMLID_30_">
	<g>
		<path style="fill:#BDC3C7;" d="M187.5,120.35v19.96l-17.45-11.63c-3.07-2.05-7.01-2.24-10.27-0.5c-3.25,1.74-5.28,5.13-5.28,8.82
			v126.5c0,3.58-2.91,6.5-6.5,6.5c-3.58,0-6.5-2.92-6.5-6.5V137c0-3.69-2.03-7.08-5.28-8.82c-1.48-0.79-3.1-1.18-4.72-1.18
			c-1.94,0-3.87,0.56-5.54,1.68l-17.46,11.63v-19.96L148,94.02L187.5,120.35z"/>
		<path style="fill:#3498DB;" d="M224.67,79c28.3,0,51.33,23.03,51.33,51.33c0,28.31-23.03,51.34-51.33,51.34H174.5v-25.98
			l17.46,11.63c3.06,2.05,7.01,2.24,10.26,0.5s5.28-5.13,5.28-8.82v-44c0-3.34-1.67-6.47-4.45-8.32l-49.5-33
			c-3.36-2.24-7.73-2.24-11.09,0l-49.5,33c-2.79,1.85-4.46,4.98-4.46,8.32v44c0,3.69,2.03,7.08,5.28,8.82
			c3.26,1.74,7.2,1.54,10.27-0.5l17.45-11.63v25.98H71.34c-28.31,0-51.34-23.03-51.34-51.34C20,102.03,43.03,79,71.34,79
			c3.26,0,6.57,0.32,9.84,0.96c2.62,0.51,5.34-0.05,7.55-1.56c2.21-1.51,3.72-3.84,4.19-6.47C97.76,45.32,120.92,26,148,26
			c27.09,0,50.25,19.32,55.08,45.93c0.48,2.63,1.99,4.96,4.2,6.47c2.21,1.51,4.93,2.07,7.55,1.56C218.09,79.32,221.4,79,224.67,79z"
			/>
		<path d="M224.67,59C264,59,296,91,296,130.33c0,39.34-32,71.34-71.33,71.34H174.5v61.83c0,14.61-11.88,26.5-26.5,26.5
			c-14.61,0-26.5-11.89-26.5-26.5v-61.83H71.34C32,201.67,0,169.67,0,130.33C0,91,32,59,71.34,59c1.39,0,2.79,0.04,4.18,0.12
			C85.34,27.84,114.46,6,148,6c33.55,0,62.67,21.84,72.48,53.12C221.88,59.04,223.28,59,224.67,59z M276,130.33
			c0-28.3-23.03-51.33-51.33-51.33c-3.27,0-6.58,0.32-9.84,0.96c-2.62,0.51-5.34-0.05-7.55-1.56c-2.21-1.51-3.72-3.84-4.2-6.47
			C198.25,45.32,175.09,26,148,26c-27.08,0-50.24,19.32-55.08,45.93c-0.47,2.63-1.98,4.96-4.19,6.47s-4.93,2.07-7.55,1.56
			C77.91,79.32,74.6,79,71.34,79C43.03,79,20,102.03,20,130.33c0,28.31,23.03,51.34,51.34,51.34h50.16v-25.98l-17.45,11.63
			c-3.07,2.04-7.01,2.24-10.27,0.5c-3.25-1.74-5.28-5.13-5.28-8.82v-44c0-3.34,1.67-6.47,4.46-8.32l49.5-33
			c3.36-2.24,7.73-2.24,11.09,0l49.5,33c2.78,1.85,4.45,4.98,4.45,8.32v44c0,3.69-2.03,7.08-5.28,8.82s-7.2,1.55-10.26-0.5
			l-17.46-11.63v25.98h50.17C252.97,181.67,276,158.64,276,130.33z M187.5,140.31v-19.96L148,94.02l-39.5,26.33v19.96l17.46-11.63
			c1.67-1.12,3.6-1.68,5.54-1.68c1.62,0,3.24,0.39,4.72,1.18c3.25,1.74,5.28,5.13,5.28,8.82v126.5c0,3.58,2.92,6.5,6.5,6.5
			c3.59,0,6.5-2.92,6.5-6.5V137c0-3.69,2.03-7.08,5.28-8.82c3.26-1.74,7.2-1.55,10.27,0.5L187.5,140.31z"/>
	</g>
</g>
<g>
</g>
<g>
</g>
<g>
</g>
<g>
</g>
<g>
</g>
<g>
</g>
<g>
</g>
<g>
</g>
<g>
</g>
<g>
</g>
<g>
</g>
<g>
</g>
<g>
</g>
<g>
</g>
<g>
</g>
</svg>
