<?xml version="1.0" encoding="iso-8859-1"?>
<!-- Generator: Adobe Illustrator 19.0.0, SVG Export Plug-In . SVG Version: 6.00 Build 0)  -->
<svg version="1.1" id="Layer_1" xmlns="http://www.w3.org/2000/svg" xmlns:xlink="http://www.w3.org/1999/xlink" x="0px" y="0px"
	 viewBox="0 0 296.997 296.997" style="enable-background:new 0 0 296.997 296.997;" xml:space="preserve">
<g id="XMLID_31_">
	<g>
		<path style="fill:#BDC3C7;" d="M187.539,47.788v19.73l-17.25-11.5c-3.03-2.02-6.93-2.21-10.14-0.49
			c-3.22,1.72-5.22,5.07-5.22,8.71v103.29c0,3.54-2.88,6.42-6.43,6.42c-3.54,0-6.42-2.88-6.42-6.42V64.239
			c0-3.64-2.01-6.99-5.22-8.71c-1.46-0.78-3.07-1.17-4.66-1.17c-1.92,0-3.83,0.56-5.49,1.66l-17.25,11.5v-19.73l39.04-26.03
			L187.539,47.788z"/>
		<path style="fill:#2ECC71;" d="M275.509,133.918v143.31H21.499v-143.31h100.81v33.61c0,14.44,11.75,26.19,26.19,26.19
			c14.45,0,26.19-11.75,26.19-26.19v-33.61L275.509,133.918L275.509,133.918z"/>
		<path d="M295.269,124.038v163.08c0,5.45-4.42,9.88-9.88,9.88H11.619c-5.46,0-9.89-4.43-9.89-9.88v-163.08
			c0-5.46,4.43-9.88,9.89-9.88h110.69v-31.45l-17.25,11.5c-3.03,2.02-6.93,2.21-10.14,0.49c-3.22-1.72-5.22-5.07-5.22-8.71v-43.49
			c0-3.31,1.65-6.39,4.4-8.22l48.92-32.62c3.32-2.21,7.65-2.21,10.97,0l48.92,32.62c2.75,1.83,4.4,4.91,4.4,8.22v43.49
			c0,3.64-2.01,6.99-5.22,8.71s-7.12,1.53-10.15-0.49l-17.25-11.5v31.45h110.7C290.849,114.159,295.269,118.578,295.269,124.038z
			 M275.509,277.228v-143.31h-100.82v33.61c0,14.44-11.74,26.19-26.19,26.19c-14.44,0-26.19-11.75-26.19-26.19v-33.61H21.499v143.31
			H275.509z M187.539,67.519v-19.73l-39.04-26.03l-39.04,26.03v19.73l17.25-11.5c1.66-1.1,3.57-1.66,5.49-1.66
			c1.59,0,3.2,0.39,4.66,1.17c3.21,1.72,5.22,5.07,5.22,8.71v103.29c0,3.54,2.88,6.42,6.42,6.42c3.55,0,6.43-2.88,6.43-6.42V64.239
			c0-3.64,2-6.99,5.22-8.71c3.21-1.72,7.11-1.53,10.14,0.49L187.539,67.519z"/>
	</g>
</g>
<g>
</g>
<g>
</g>
<g>
</g>
<g>
</g>
<g>
</g>
<g>
</g>
<g>
</g>
<g>
</g>
<g>
</g>
<g>
</g>
<g>
</g>
<g>
</g>
<g>
</g>
<g>
</g>
<g>
</g>
</svg>
