<?xml version="1.0" encoding="iso-8859-1"?>
<!-- Generator: Adobe Illustrator 19.0.0, SVG Export Plug-In . SVG Version: 6.00 Build 0)  -->
<svg version="1.1" id="Layer_1" xmlns="http://www.w3.org/2000/svg" xmlns:xlink="http://www.w3.org/1999/xlink" x="0px" y="0px"
	 viewBox="0 0 297 297" style="enable-background:new 0 0 297 297;" xml:space="preserve">
<g>
	<g id="XMLID_50_">
		<g>
			<path style="fill:#16A085;" d="M276.09,25.71v83.17c0,2.65-2.16,4.8-4.8,4.8h-83.17c-2.65,0-4.8-2.15-4.8-4.8V25.71
				c0-2.64,2.15-4.79,4.8-4.79h83.17C273.93,20.92,276.09,23.07,276.09,25.71z"/>
			<path style="fill:#1ABC9C;" d="M113.69,25.71v83.17c0,2.65-2.16,4.8-4.8,4.8H25.72c-2.65,0-4.8-2.15-4.8-4.8V25.71
				c0-2.64,2.15-4.79,4.8-4.79h83.17C111.53,20.92,113.69,23.07,113.69,25.71z"/>
			<path style="fill:#2ECC71;" d="M113.69,188.12v83.17c0,2.64-2.16,4.79-4.8,4.79H25.72c-2.65,0-4.8-2.15-4.8-4.79v-83.17
				c0-2.65,2.15-4.8,4.8-4.8h83.17C111.53,183.32,113.69,185.47,113.69,188.12z"/>
			<path style="fill:#27AE60;" d="M276.09,188.12v83.17c0,2.64-2.16,4.79-4.8,4.79h-83.17c-2.65,0-4.8-2.15-4.8-4.79v-83.17
				c0-2.65,2.15-4.8,4.8-4.8h83.17C273.93,183.32,276.09,185.47,276.09,188.12z"/>
			<path d="M297,188.12v83.17c0,14.17-11.53,25.71-25.71,25.71h-83.17c-14.18,0-25.71-11.54-25.71-25.71v-83.17
				c0-14.18,11.53-25.72,25.71-25.72h83.17C285.47,162.4,297,173.94,297,188.12z M276.09,271.29v-83.17c0-2.65-2.16-4.8-4.8-4.8
				h-83.17c-2.65,0-4.8,2.15-4.8,4.8v83.17c0,2.64,2.15,4.79,4.8,4.79h83.17C273.93,276.08,276.09,273.93,276.09,271.29z"/>
			<path d="M297,25.71v83.17c0,14.18-11.53,25.72-25.71,25.72h-83.17c-14.18,0-25.71-11.54-25.71-25.72V25.71
				C162.41,11.54,173.94,0,188.12,0h83.17C285.47,0,297,11.54,297,25.71z M276.09,108.88V25.71c0-2.64-2.16-4.79-4.8-4.79h-83.17
				c-2.65,0-4.8,2.15-4.8,4.79v83.17c0,2.65,2.15,4.8,4.8,4.8h83.17C273.93,113.68,276.09,111.53,276.09,108.88z"/>
			<path d="M134.6,188.12v83.17c0,14.17-11.53,25.71-25.71,25.71H25.72C11.54,297,0,285.46,0,271.29v-83.17
				c0-14.18,11.54-25.72,25.72-25.72h83.17C123.07,162.4,134.6,173.94,134.6,188.12z M113.69,271.29v-83.17c0-2.65-2.16-4.8-4.8-4.8
				H25.72c-2.65,0-4.8,2.15-4.8,4.8v83.17c0,2.64,2.15,4.79,4.8,4.79h83.17C111.53,276.08,113.69,273.93,113.69,271.29z"/>
			<path d="M134.6,25.71v83.17c0,14.18-11.53,25.72-25.71,25.72H25.72C11.54,134.6,0,123.06,0,108.88V25.71C0,11.54,11.54,0,25.72,0
				h83.17C123.07,0,134.6,11.54,134.6,25.71z M113.69,108.88V25.71c0-2.64-2.16-4.79-4.8-4.79H25.72c-2.65,0-4.8,2.15-4.8,4.79
				v83.17c0,2.65,2.15,4.8,4.8,4.8h83.17C111.53,113.68,113.69,111.53,113.69,108.88z"/>
		</g>
	</g>
</g>
<g>
</g>
<g>
</g>
<g>
</g>
<g>
</g>
<g>
</g>
<g>
</g>
<g>
</g>
<g>
</g>
<g>
</g>
<g>
</g>
<g>
</g>
<g>
</g>
<g>
</g>
<g>
</g>
<g>
</g>
</svg>
