<?xml version="1.0" encoding="iso-8859-1"?>
<!-- Generator: Adobe Illustrator 19.0.0, SVG Export Plug-In . SVG Version: 6.00 Build 0)  -->
<svg version="1.1" id="Layer_1" xmlns="http://www.w3.org/2000/svg" xmlns:xlink="http://www.w3.org/1999/xlink" x="0px" y="0px"
	 viewBox="0 0 297.002 297.002" style="enable-background:new 0 0 297.002 297.002;" xml:space="preserve">
<g>
	<g id="XMLID_32_">
		<g>
			<path style="fill:#BDC3C7;" d="M269.291,262.492c3.75,0,6.8,3.05,6.8,6.8c0,3.74-3.05,6.79-6.8,6.79H27.721
				c-3.75,0-6.8-3.05-6.8-6.79c0-3.75,3.05-6.8,6.8-6.8H269.291z"/>
			<path style="fill:#D95459;" d="M189.811,50.572v20.87l-18.25-12.17c-3.21-2.13-7.34-2.34-10.74-0.51
				c-3.4,1.82-5.52,5.36-5.52,9.22v132.29c0,3.74-3.05,6.79-6.8,6.79s-6.79-3.05-6.79-6.79V67.982c0-3.86-2.13-7.4-5.53-9.22
				c-1.54-0.83-3.24-1.24-4.93-1.24c-2.03,0-4.05,0.59-5.8,1.75l-18.26,12.17v-20.87l41.31-27.54L189.811,50.572z"/>
			<path d="M269.291,241.572c15.28,0,27.71,12.44,27.71,27.72s-12.43,27.71-27.71,27.71H27.721c-15.29,0-27.72-12.43-27.72-27.71
				s12.43-27.72,27.72-27.72L269.291,241.572L269.291,241.572z M276.091,269.293c0-3.75-3.05-6.8-6.8-6.8H27.721
				c-3.75,0-6.8,3.05-6.8,6.8c0,3.74,3.05,6.79,6.8,6.79h241.57C273.041,276.082,276.091,273.033,276.091,269.293z"/>
			<path d="M210.731,44.972v46.01c0,3.86-2.13,7.4-5.53,9.22s-7.52,1.62-10.73-0.52l-18.25-12.16v112.75
				c0,15.28-12.44,27.71-27.72,27.71s-27.71-12.43-27.71-27.71V87.522l-18.25,12.16c-3.21,2.14-7.34,2.34-10.74,0.52
				c-3.4-1.82-5.52-5.36-5.52-9.22v-46.01c0-3.5,1.75-6.76,4.66-8.7l51.76-34.51c3.52-2.35,8.09-2.35,11.6,0l51.77,34.51
				C208.981,38.213,210.731,41.472,210.731,44.972z M189.811,71.442v-20.87l-41.31-27.54l-41.31,27.54v20.87l18.26-12.17
				c1.75-1.16,3.77-1.75,5.8-1.75c1.69,0,3.39,0.41,4.93,1.24c3.4,1.82,5.53,5.36,5.53,9.22v132.29c0,3.74,3.04,6.79,6.79,6.79
				s6.8-3.05,6.8-6.79V67.982c0-3.86,2.12-7.4,5.52-9.22c3.4-1.83,7.53-1.62,10.74,0.51L189.811,71.442z"/>
		</g>
	</g>
</g>
<g>
</g>
<g>
</g>
<g>
</g>
<g>
</g>
<g>
</g>
<g>
</g>
<g>
</g>
<g>
</g>
<g>
</g>
<g>
</g>
<g>
</g>
<g>
</g>
<g>
</g>
<g>
</g>
<g>
</g>
</svg>
