<?xml version="1.0" encoding="iso-8859-1"?>
<!-- Generator: Adobe Illustrator 19.0.0, SVG Export Plug-In . SVG Version: 6.00 Build 0)  -->
<svg version="1.1" id="Layer_1" xmlns="http://www.w3.org/2000/svg" xmlns:xlink="http://www.w3.org/1999/xlink" x="0px" y="0px"
	 viewBox="0 0 297 297" style="enable-background:new 0 0 297 297;" xml:space="preserve">
<g>
	<g id="XMLID_32_">
		<g>
			<path style="fill:#E67E22;" d="M205.58,109.46c21.53,0,39.04,17.51,39.04,39.04s-17.51,39.04-39.04,39.04
				s-39.04-17.51-39.04-39.04S184.05,109.46,205.58,109.46z"/>
			<path style="fill:#FFCD02;" d="M205.58,76.84c39.51,0,71.66,32.15,71.66,71.66s-32.15,71.66-71.66,71.66H91.43
				c-39.52,0-71.66-32.15-71.66-71.66s32.14-71.66,71.66-71.66H205.58z M264.39,148.5c0-32.43-26.38-58.81-58.81-58.81
				s-58.81,26.38-58.81,58.81s26.38,58.81,58.81,58.81S264.39,180.93,264.39,148.5z"/>
			<path d="M205.58,57.08c50.41,0,91.42,41.01,91.42,91.42s-41.01,91.42-91.42,91.42H91.43C41.01,239.92,0,198.91,0,148.5
				s41.01-91.42,91.43-91.42H205.58z M277.24,148.5c0-39.51-32.15-71.66-71.66-71.66H91.43c-39.52,0-71.66,32.15-71.66,71.66
				s32.14,71.66,71.66,71.66h114.15C245.09,220.16,277.24,188.01,277.24,148.5z"/>
			<path d="M205.58,89.69c32.43,0,58.81,26.38,58.81,58.81s-26.38,58.81-58.81,58.81s-58.81-26.38-58.81-58.81
				S173.15,89.69,205.58,89.69z M244.62,148.5c0-21.53-17.51-39.04-39.04-39.04s-39.04,17.51-39.04,39.04s17.51,39.04,39.04,39.04
				S244.62,170.03,244.62,148.5z"/>
		</g>
	</g>
</g>
<g>
</g>
<g>
</g>
<g>
</g>
<g>
</g>
<g>
</g>
<g>
</g>
<g>
</g>
<g>
</g>
<g>
</g>
<g>
</g>
<g>
</g>
<g>
</g>
<g>
</g>
<g>
</g>
<g>
</g>
</svg>
