<?xml version="1.0" encoding="iso-8859-1"?>
<!-- Generator: Adobe Illustrator 19.0.0, SVG Export Plug-In . SVG Version: 6.00 Build 0)  -->
<svg version="1.1" id="Layer_1" xmlns="http://www.w3.org/2000/svg" xmlns:xlink="http://www.w3.org/1999/xlink" x="0px" y="0px"
	 viewBox="0 0 297 297" style="enable-background:new 0 0 297 297;" xml:space="preserve">
<g>
	<g id="XMLID_50_">
		<g>
			<path style="fill:#D35400;" d="M276.52,26.29V49.5c0,3.2-2.6,5.8-5.8,5.8H26.29c-3.2,0-5.8-2.6-5.8-5.8V26.29
				c0-3.2,2.6-5.81,5.8-5.81h244.43C273.92,20.48,276.52,23.09,276.52,26.29z"/>
			<path style="fill:#C0392B;" d="M276.52,136.89v23.22c0,3.2-2.6,5.8-5.8,5.8H26.29c-3.2,0-5.8-2.6-5.8-5.8v-23.22
				c0-3.2,2.6-5.8,5.8-5.8h244.43C273.92,131.09,276.52,133.69,276.52,136.89z"/>
			<path style="fill:#79302A;" d="M276.52,247.5v23.21c0,3.2-2.6,5.81-5.8,5.81H26.29c-3.2,0-5.8-2.61-5.8-5.81V247.5
				c0-3.2,2.6-5.8,5.8-5.8h244.43C273.92,241.7,276.52,244.3,276.52,247.5z"/>
			<path d="M297,247.5v23.21c0,14.5-11.79,26.29-26.28,26.29H26.29C11.8,297,0,285.21,0,270.71V247.5
				c0-14.49,11.8-26.29,26.29-26.29h244.43C285.21,221.21,297,233.01,297,247.5z M276.52,270.71V247.5c0-3.2-2.6-5.8-5.8-5.8H26.29
				c-3.2,0-5.8,2.6-5.8,5.8v23.21c0,3.2,2.6,5.81,5.8,5.81h244.43C273.92,276.52,276.52,273.91,276.52,270.71z"/>
			<path d="M297,136.89v23.22c0,14.49-11.79,26.28-26.28,26.28H26.29C11.8,186.39,0,174.6,0,160.11v-23.22
				c0-14.49,11.8-26.28,26.29-26.28h244.43C285.21,110.61,297,122.4,297,136.89z M276.52,160.11v-23.22c0-3.2-2.6-5.8-5.8-5.8H26.29
				c-3.2,0-5.8,2.6-5.8,5.8v23.22c0,3.2,2.6,5.8,5.8,5.8h244.43C273.92,165.91,276.52,163.31,276.52,160.11z"/>
			<path d="M297,26.29V49.5c0,14.49-11.79,26.29-26.28,26.29H26.29C11.8,75.79,0,63.99,0,49.5V26.29C0,11.79,11.8,0,26.29,0h244.43
				C285.21,0,297,11.79,297,26.29z M276.52,49.5V26.29c0-3.2-2.6-5.81-5.8-5.81H26.29c-3.2,0-5.8,2.61-5.8,5.81V49.5
				c0,3.2,2.6,5.8,5.8,5.8h244.43C273.92,55.3,276.52,52.7,276.52,49.5z"/>
		</g>
	</g>
</g>
<g>
</g>
<g>
</g>
<g>
</g>
<g>
</g>
<g>
</g>
<g>
</g>
<g>
</g>
<g>
</g>
<g>
</g>
<g>
</g>
<g>
</g>
<g>
</g>
<g>
</g>
<g>
</g>
<g>
</g>
</svg>
