<?xml version="1.0" encoding="iso-8859-1"?>
<!-- Generator: Adobe Illustrator 19.0.0, SVG Export Plug-In . SVG Version: 6.00 Build 0)  -->
<svg version="1.1" id="Layer_1" xmlns="http://www.w3.org/2000/svg" xmlns:xlink="http://www.w3.org/1999/xlink" x="0px" y="0px"
	 viewBox="0 0 297 297" style="enable-background:new 0 0 297 297;" xml:space="preserve">
<g id="XMLID_45_">
	<g>
		<path style="fill:#3DBCE5;" d="M278,139.16c0,7.78-2.11,15.2-6.05,21.66c-11.8-20.01-33.56-33.47-58.42-33.47
			c-1.33,0-2.65,0.04-3.98,0.12c-9.33-29.73-37.01-50.49-68.89-50.49c-3.05,0-6.07,0.2-9.03,0.57c7.7-14.73,23.09-24.49,40.48-24.49
			c22.09,0,40.98,15.76,44.93,37.47c0.45,2.5,1.89,4.72,3.99,6.15s4.68,1.97,7.18,1.48c2.65-0.52,5.34-0.78,8-0.78
			C259.25,97.38,278,116.13,278,139.16z"/>
		<path style="fill:#3498DB;" d="M213.53,146.36c26.9,0,48.78,21.89,48.78,48.79s-21.88,48.79-48.78,48.79H67.8
			c-26.9,0-48.79-21.89-48.79-48.79s21.89-48.79,48.79-48.79c3.1,0,6.25,0.31,9.35,0.91c2.49,0.49,5.08-0.05,7.18-1.48
			c2.1-1.44,3.53-3.65,3.99-6.15c4.59-25.29,26.6-43.65,52.34-43.65s47.76,18.36,52.35,43.65c0.45,2.5,1.89,4.71,3.99,6.15
			c2.1,1.43,4.68,1.97,7.17,1.48C207.27,146.67,210.42,146.36,213.53,146.36z"/>
		<path d="M297,139.16c0,15.92-6.06,30.83-17.09,42.22c0.92,4.45,1.41,9.05,1.41,13.77c0,37.38-30.41,67.79-67.79,67.79H67.8
			c-37.38,0-67.8-30.41-67.8-67.79s30.42-67.8,67.8-67.8c1.32,0,2.65,0.04,3.98,0.12c6.03-19.22,19.73-34.68,37.28-43.22
			c6.69-29.26,32.74-50.19,63.05-50.19c28.25,0,52.81,18.2,61.42,44.37c0.9-0.04,1.79-0.06,2.68-0.06
			C269.73,78.37,297,105.64,297,139.16z M271.95,160.82c3.94-6.46,6.05-13.88,6.05-21.66c0-23.03-18.75-41.78-41.79-41.78
			c-2.66,0-5.35,0.26-8,0.78c-2.5,0.49-5.08-0.05-7.18-1.48s-3.54-3.65-3.99-6.15c-3.95-21.71-22.84-37.47-44.93-37.47
			c-17.39,0-32.78,9.76-40.48,24.49c2.96-0.37,5.98-0.57,9.03-0.57c31.88,0,59.56,20.76,68.89,50.49c1.33-0.08,2.65-0.12,3.98-0.12
			C238.39,127.35,260.15,140.81,271.95,160.82z M262.31,195.15c0-26.9-21.88-48.79-48.78-48.79c-3.11,0-6.26,0.31-9.36,0.91
			c-2.49,0.49-5.07-0.05-7.17-1.48c-2.1-1.44-3.54-3.65-3.99-6.15c-4.59-25.29-26.61-43.65-52.35-43.65s-47.75,18.36-52.34,43.65
			c-0.46,2.5-1.89,4.71-3.99,6.15c-2.1,1.43-4.69,1.97-7.18,1.48c-3.1-0.6-6.25-0.91-9.35-0.91c-26.9,0-48.79,21.89-48.79,48.79
			s21.89,48.79,48.79,48.79h145.73C240.43,243.94,262.31,222.05,262.31,195.15z"/>
	</g>
</g>
<g>
</g>
<g>
</g>
<g>
</g>
<g>
</g>
<g>
</g>
<g>
</g>
<g>
</g>
<g>
</g>
<g>
</g>
<g>
</g>
<g>
</g>
<g>
</g>
<g>
</g>
<g>
</g>
<g>
</g>
</svg>
