<?xml version="1.0" encoding="iso-8859-1"?>
<!-- Generator: Adobe Illustrator 19.0.0, SVG Export Plug-In . SVG Version: 6.00 Build 0)  -->
<svg version="1.1" id="Layer_1" xmlns="http://www.w3.org/2000/svg" xmlns:xlink="http://www.w3.org/1999/xlink" x="0px" y="0px"
	 viewBox="0 0 297 297" style="enable-background:new 0 0 297 297;" xml:space="preserve">
<g>
	<g id="XMLID_10_">
		<g>
			<path style="fill:#3498DB;" d="M225.43,123.58c28.4,0,51.51,23.11,51.51,51.51s-23.11,51.51-51.51,51.51H71.58
				c-28.4,0-51.51-23.11-51.51-51.51s23.11-51.51,51.51-51.51c3.28,0,6.6,0.33,9.87,0.96c2.63,0.52,5.36-0.05,7.58-1.56
				c2.21-1.52,3.73-3.85,4.21-6.49c4.85-26.71,28.09-46.09,55.26-46.09c27.18,0,50.42,19.38,55.27,46.09
				c0.48,2.64,1.99,4.97,4.21,6.49c2.21,1.51,4.94,2.08,7.58,1.56C218.83,123.91,222.15,123.58,225.43,123.58z M188.01,175.32
				c0-16.28,0-65.66,0-65.66c0-3.31-1.64-6.41-4.37-8.28c-2.73-1.87-6.21-2.28-9.3-1.08l-60.39,23.42c-3.86,1.5-6.41,5.21-6.41,9.36
				v37.57c-0.1,0-0.19-0.02-0.3-0.02c-6.43-0.41-13.4,1.37-19.66,4.99c-6.25,3.62-11.26,8.8-14.1,14.57
				c-3.46,7.02-3.47,14.46-0.02,20.41c3.44,5.95,9.9,9.64,17.71,10.13c0.6,0.04,1.21,0.06,1.82,0.06c5.9,0,12.17-1.77,17.84-5.05
				c6.25-3.62,11.26-8.8,14.11-14.57c1.32-2.69,2.67-7.52,2.67-10.24c0-12.83,0-50.98,0-50.98l40.33-15.64v29.06
				c-6.29-0.45-13.3,1.14-19.89,4.96c-6.26,3.63-11.27,8.8-14.11,14.58c-3.46,7.02-3.46,14.46-0.02,20.4
				c3.45,5.95,9.9,9.64,17.71,10.14c0.61,0.03,1.21,0.05,1.82,0.05c5.91,0,12.17-1.76,17.84-5.05c6.26-3.62,11.27-8.8,14.11-14.57
				C186.79,181.05,188.01,178.17,188.01,175.32z"/>
			<path d="M225.43,103.52c39.46,0,71.57,32.1,71.57,71.57s-32.11,71.57-71.57,71.57H71.58C32.11,246.66,0,214.56,0,175.09
				s32.11-71.57,71.58-71.57c1.39,0,2.8,0.04,4.2,0.12c9.85-31.39,39.06-53.3,72.72-53.3s62.88,21.91,72.73,53.3
				C222.63,103.56,224.03,103.52,225.43,103.52z M276.94,175.09c0-28.4-23.11-51.51-51.51-51.51c-3.28,0-6.6,0.33-9.87,0.96
				c-2.64,0.52-5.37-0.05-7.58-1.56c-2.22-1.52-3.73-3.85-4.21-6.49c-4.85-26.71-28.09-46.09-55.27-46.09
				c-27.17,0-50.41,19.38-55.26,46.09c-0.48,2.64-2,4.97-4.21,6.49c-2.22,1.51-4.95,2.08-7.58,1.56c-3.27-0.63-6.59-0.96-9.87-0.96
				c-28.4,0-51.51,23.11-51.51,51.51s23.11,51.51,51.51,51.51h153.85C253.83,226.6,276.94,203.49,276.94,175.09z"/>
			<path d="M188.01,109.66c0,0,0,49.38,0,65.66c0,2.85-1.22,5.73-2.61,8.56c-2.84,5.77-7.85,10.95-14.11,14.57
				c-5.67,3.29-11.93,5.05-17.84,5.05c-0.61,0-1.21-0.02-1.82-0.05c-7.81-0.5-14.26-4.19-17.71-10.14
				c-3.44-5.94-3.44-13.38,0.02-20.4c2.84-5.78,7.85-10.95,14.11-14.58c6.59-3.82,13.6-5.41,19.89-4.96v-29.06l-40.33,15.64
				c0,0,0,38.15,0,50.98c0,2.72-1.35,7.55-2.67,10.24c-2.85,5.77-7.86,10.95-14.11,14.57c-5.67,3.28-11.94,5.05-17.84,5.05
				c-0.61,0-1.22-0.02-1.82-0.06c-7.81-0.49-14.27-4.18-17.71-10.13c-3.45-5.95-3.44-13.39,0.02-20.41
				c2.84-5.77,7.85-10.95,14.1-14.57c6.26-3.62,13.23-5.4,19.66-4.99c0.11,0,0.2,0.02,0.3,0.02v-37.57c0-4.15,2.55-7.86,6.41-9.36
				l60.39-23.42c3.09-1.2,6.57-0.79,9.3,1.08C186.37,103.25,188.01,106.35,188.01,109.66z M161.23,181.09
				c4.5-2.61,6.43-6.04,6.68-7.47c-1.37-0.49-5.3-0.53-9.8,2.08c-4.5,2.6-6.43,6.03-6.68,7.47
				C152.8,183.66,156.73,183.7,161.23,181.09z M100.77,198.38c4.5-2.61,6.42-6.04,6.68-7.48c-1.37-0.49-5.31-0.52-9.81,2.08
				c-4.5,2.61-6.42,6.04-6.67,7.47C92.34,200.95,96.27,200.98,100.77,198.38z"/>
		</g>
	</g>
</g>
<g>
</g>
<g>
</g>
<g>
</g>
<g>
</g>
<g>
</g>
<g>
</g>
<g>
</g>
<g>
</g>
<g>
</g>
<g>
</g>
<g>
</g>
<g>
</g>
<g>
</g>
<g>
</g>
<g>
</g>
</svg>
