<?xml version="1.0" encoding="iso-8859-1"?>
<!-- Generator: Adobe Illustrator 19.0.0, SVG Export Plug-In . SVG Version: 6.00 Build 0)  -->
<svg version="1.1" id="Layer_1" xmlns="http://www.w3.org/2000/svg" xmlns:xlink="http://www.w3.org/1999/xlink" x="0px" y="0px"
	 viewBox="0 0 297 297" style="enable-background:new 0 0 297 297;" xml:space="preserve">
<g>
	<g id="XMLID_43_">
		<g>
			<path style="fill:#5065A1;" d="M220.16,67.62v13.92H44.23V67.62c0-8.4,6.84-15.24,15.24-15.24h145.45
				C213.32,52.38,220.16,59.22,220.16,67.62z"/>
			<path style="fill:#BDC3C7;" d="M171.24,101.31v54.54c-4.9,5.12-8.89,11.11-11.69,17.73v-72.27
				C159.55,101.31,171.24,101.31,171.24,101.31z"/>
			<polygon style="fill:#BDC3C7;" points="73.39,101.8 73.39,277.23 71.62,277.23 61.15,101.8 			"/>
			<rect x="93.16" y="101.31" style="fill:#BDC3C7;" width="11.68" height="175.92"/>
			<rect x="124.61" y="101.8" style="fill:#BDC3C7;" width="15.17" height="175.43"/>
			<path style="fill:#BDC3C7;" d="M171.24,237.02v40.21h-11.69v-57.94C162.35,225.91,166.34,231.9,171.24,237.02z"/>
			<path style="fill:#BDC3C7;" d="M194.28,251.92l-1.51,25.31H191v-26.56C192.08,251.12,193.18,251.53,194.28,251.92z"/>
			<path style="fill:#BDC3C7;" d="M203.24,101.8l-2.22,37.23c-3.46,0.76-6.81,1.82-10.02,3.17v-40.4
				C191,101.8,203.24,101.8,203.24,101.8z"/>
			<path style="fill:#E67E22;" d="M213.73,157.4c21.53,0,39.04,17.51,39.04,39.04c0,21.52-17.51,39.04-39.04,39.04
				c-21.52,0-39.04-17.52-39.04-39.04C174.69,174.91,192.21,157.4,213.73,157.4z M237.03,187.12c3.86-3.86,3.86-10.12,0-13.98
				s-10.12-3.86-13.98,0l-9.32,9.32l-9.31-9.32c-3.87-3.86-10.12-3.86-13.98,0s-3.86,10.12,0,13.98l9.32,9.32l-9.32,9.31
				c-3.86,3.86-3.86,10.12,0,13.98c1.93,1.93,4.46,2.9,6.99,2.9s5.06-0.97,6.99-2.9l9.31-9.32l9.32,9.32
				c1.93,1.93,4.46,2.9,6.99,2.9s5.06-0.97,6.99-2.9c3.86-3.86,3.86-10.12,0-13.98l-9.32-9.31L237.03,187.12z"/>
			<path d="M220.88,138.08c29.07,3.54,51.66,28.35,51.66,58.36c0,32.37-26.3,58.71-58.65,58.8l-1.94,32.47
				c-0.31,5.22-4.64,9.29-9.86,9.29H62.3c-5.22,0-9.55-4.07-9.86-9.29l-11.12-186.4h-6.97c-5.46,0-9.89-4.43-9.89-9.89v-23.8
				c0-19.3,15.71-35,35.01-35H89.7V9.88C89.7,4.43,94.12,0,99.58,0h65.23c5.46,0,9.88,4.43,9.88,9.88v22.74h30.23
				c19.3,0,35.01,15.7,35.01,35v23.8c0,5.46-4.43,9.89-9.89,9.89h-6.96L220.88,138.08z M252.77,196.44
				c0-21.53-17.51-39.04-39.04-39.04c-21.52,0-39.04,17.51-39.04,39.04c0,21.52,17.52,39.04,39.04,39.04
				C235.26,235.48,252.77,217.96,252.77,196.44z M220.16,81.54V67.62c0-8.4-6.84-15.24-15.24-15.24H59.47
				c-8.4,0-15.24,6.84-15.24,15.24v13.92H220.16z M201.02,139.03l2.22-37.23H191v40.4C194.21,140.85,197.56,139.79,201.02,139.03z
				 M192.77,277.23l1.51-25.31c-1.1-0.39-2.2-0.8-3.28-1.25v26.56H192.77z M171.24,277.23v-40.21c-4.9-5.12-8.89-11.11-11.69-17.73
				v57.94H171.24z M171.24,155.85v-54.54h-11.69v72.27C162.35,166.96,166.34,160.97,171.24,155.85z M154.93,32.62V19.77h-45.47
				v12.85C109.46,32.62,154.93,32.62,154.93,32.62z M139.78,277.23V101.8h-15.17v175.43L139.78,277.23L139.78,277.23z
				 M104.84,277.23V101.31H93.16v175.92L104.84,277.23L104.84,277.23z M73.39,277.23V101.8H61.15l10.47,175.43L73.39,277.23
				L73.39,277.23z"/>
			<path d="M237.03,173.14c3.86,3.86,3.86,10.12,0,13.98l-9.32,9.32l9.32,9.31c3.86,3.86,3.86,10.12,0,13.98
				c-1.93,1.93-4.46,2.9-6.99,2.9s-5.06-0.97-6.99-2.9l-9.32-9.32l-9.31,9.32c-1.93,1.93-4.46,2.9-6.99,2.9s-5.06-0.97-6.99-2.9
				c-3.86-3.86-3.86-10.12,0-13.98l9.32-9.31l-9.32-9.32c-3.86-3.86-3.86-10.12,0-13.98s10.11-3.86,13.98,0l9.31,9.32l9.32-9.32
				C226.91,169.28,233.17,169.28,237.03,173.14z"/>
		</g>
	</g>
</g>
<g>
</g>
<g>
</g>
<g>
</g>
<g>
</g>
<g>
</g>
<g>
</g>
<g>
</g>
<g>
</g>
<g>
</g>
<g>
</g>
<g>
</g>
<g>
</g>
<g>
</g>
<g>
</g>
<g>
</g>
</svg>
