<?xml version="1.0" encoding="iso-8859-1"?>
<!-- Generator: Adobe Illustrator 19.0.0, SVG Export Plug-In . SVG Version: 6.00 Build 0)  -->
<svg version="1.1" id="Layer_1" xmlns="http://www.w3.org/2000/svg" xmlns:xlink="http://www.w3.org/1999/xlink" x="0px" y="0px"
	 viewBox="0 0 297.002 297.002" style="enable-background:new 0 0 297.002 297.002;" xml:space="preserve">
<g id="XMLID_54_">
	<g>
		<path style="fill:#5065A1;" d="M231.418,88.902c1.74,3.54,2,7.54,0.72,11.27l-4.35,12.75l-161.16-55.02l4.36-12.75
			c2.62-7.7,11.03-11.82,18.72-9.2l133.24,45.49C226.678,82.722,229.688,85.362,231.418,88.902z"/>
		<polygon style="fill:#BDC3C7;" points="79.698,108.062 79.698,277.872 77.978,277.872 67.848,108.062 73.478,108.062 		"/>
		<rect x="98.828" y="108.062" style="fill:#BDC3C7;" width="11.31" height="169.81"/>
		<rect x="129.278" y="108.062" style="fill:#BDC3C7;" width="14.69" height="169.81"/>
		<polygon style="fill:#BDC3C7;" points="174.408,114.912 174.408,277.872 163.098,277.872 163.098,111.052 		"/>
		<polygon style="fill:#BDC3C7;" points="204.368,125.142 195.258,277.872 193.538,277.872 193.538,121.442 		"/>
		<path d="M248.598,80.472c3.99,8.12,4.57,17.31,1.65,25.88l-7.44,21.8c-1.36,3.98-5.08,6.48-9.06,6.48c-1.02,0-2.06-0.17-3.09-0.52
			l-7.5-2.56l-9.34,156.45c-0.3,5.06-4.49,9-9.55,9h-135.3c-5.06,0-9.25-3.94-9.55-9l-11.27-188.94c-0.16-2.63,0.78-5.21,2.58-7.13
			c1.81-1.92,4.33-3.01,6.97-3.01h40.59l-46.89-16.01c-2.4-0.82-4.38-2.56-5.5-4.84c-1.12-2.27-1.28-4.9-0.47-7.3l7.45-21.81
			c6.04-17.68,25.33-27.15,43.01-21.12l27.69,9.46l7.11-20.82c0.82-2.41,2.56-4.38,4.84-5.5s4.9-1.29,7.31-0.47l59.75,20.4
			c5,1.71,7.67,7.15,5.96,12.15l-7.11,20.82l27.69,9.46C237.698,66.262,244.608,72.342,248.598,80.472z M232.138,100.172
			c1.28-3.73,1.02-7.73-0.72-11.27c-1.73-3.54-4.74-6.18-8.47-7.46l-133.24-45.49c-7.69-2.62-16.1,1.5-18.72,9.2l-4.36,12.75
			l161.16,55.02L232.138,100.172z M195.258,277.872l9.11-152.73l-10.83-3.7v156.43H195.258z M183.338,47.702l4.01-11.77
			l-41.64-14.22l-4.02,11.77L183.338,47.702z M174.408,277.872v-162.96l-11.31-3.86v166.82H174.408z M143.968,277.872v-169.81
			h-14.69v169.81H143.968z M110.138,277.872v-169.81h-11.31v169.81H110.138z M79.698,277.872v-169.81h-6.22h-5.63l10.13,169.81
			H79.698z"/>
	</g>
</g>
<g>
</g>
<g>
</g>
<g>
</g>
<g>
</g>
<g>
</g>
<g>
</g>
<g>
</g>
<g>
</g>
<g>
</g>
<g>
</g>
<g>
</g>
<g>
</g>
<g>
</g>
<g>
</g>
<g>
</g>
</svg>
