<?xml version="1.0" encoding="iso-8859-1"?>
<!-- Generator: Adobe Illustrator 19.0.0, SVG Export Plug-In . SVG Version: 6.00 Build 0)  -->
<svg version="1.1" id="Layer_1" xmlns="http://www.w3.org/2000/svg" xmlns:xlink="http://www.w3.org/1999/xlink" x="0px" y="0px"
	 viewBox="0 0 296.998 296.998" style="enable-background:new 0 0 296.998 296.998;" xml:space="preserve">
<g>
	<g id="XMLID_28_">
		<g>
			<path style="fill:#2ECC71;" d="M147.316,211.828l9.11,40.13l-33.53,23.84l-14.13-5.4l13.22-9.22c3.03-2.11,4.65-5.73,4.2-9.4
				c-0.46-3.66-2.9-6.78-6.35-8.1l-8.59-3.28c-51.85-19.8-78.34-77.67-59.04-129.01c5.83-15.53,15.47-29.46,27.86-40.29
				c1.67-1.46,3.51-1.5,4.46-1.39c0.95,0.1,2.75,0.55,4.07,2.36c1.79,2.45,1.39,5.82-0.91,7.84c-10.84,9.49-19.3,21.65-24.45,35.17
				c-17.45,45.8,6,97.43,52.28,115.1l8.27,3.16c3.47,1.32,7.38,0.61,10.16-1.84s3.97-6.24,3.09-9.85l-3.69-15.15L147.316,211.828z"
				/>
			<path style="fill:#16A085;" d="M185.746,56.598c51.86,19.8,78.34,77.68,59.05,129.01c-5.84,15.53-15.47,29.46-27.87,40.29
				c-1.66,1.46-3.51,1.5-4.45,1.4c-0.96-0.11-2.76-0.56-4.07-2.37c-1.79-2.45-1.4-5.82,0.91-7.84c5.42-4.75,10.24-10.16,14.35-16.07
				c4.12-5.92,7.52-12.34,10.1-19.1c17.45-45.8-6-97.43-52.28-115.1l-8.28-3.16c-1.15-0.44-2.36-0.65-3.55-0.65
				c-2.39,0-4.75,0.86-6.6,2.49c-2.78,2.45-3.98,6.24-3.1,9.85l3.7,15.16l-13.98-5.34l-9.11-40.13l33.54-23.84l14.12,5.4
				l-13.22,9.22c-3.03,2.11-4.64,5.73-4.19,9.4s2.89,6.78,6.34,8.1L185.746,56.598z"/>
			<path d="M201.526,41.648c56.31,26.6,83.99,92.33,61.95,150.98c-6.99,18.6-18.55,35.3-33.41,48.3
				c-4.71,4.11-10.76,6.35-16.96,6.35c-0.95,0-1.9-0.05-2.85-0.16c-7.18-0.8-13.73-4.61-17.98-10.44
				c-7.91-10.86-6.23-25.74,3.9-34.61c8.39-7.34,14.94-16.77,18.94-27.26c12.26-32.16-1.58-68.07-31.04-84.78l3.46,14.21
				c0.88,3.6-0.31,7.4-3.09,9.85s-6.69,3.16-10.16,1.83l-36.71-14.02c-3.12-1.19-5.43-3.85-6.17-7.11l-11.77-51.82
				c-0.89-3.92,0.67-8,3.95-10.34l43.31-30.78c2.72-1.94,6.23-2.38,9.34-1.19l36.72,14.02c3.45,1.32,5.89,4.43,6.34,8.1
				s-1.16,7.28-4.2,9.4L201.526,41.648z M244.796,185.608c19.29-51.33-7.19-109.21-59.05-129.01l-8.59-3.28
				c-3.45-1.32-5.89-4.43-6.34-8.1s1.16-7.29,4.19-9.4l13.22-9.22l-14.12-5.4l-33.54,23.84l9.11,40.13l13.98,5.34l-3.7-15.16
				c-0.88-3.61,0.32-7.4,3.1-9.85c1.85-1.63,4.21-2.49,6.6-2.49c1.19,0,2.4,0.21,3.55,0.65l8.28,3.16
				c46.28,17.67,69.73,69.3,52.28,115.1c-2.58,6.76-5.98,13.18-10.1,19.1c-4.11,5.91-8.93,11.32-14.35,16.07
				c-2.31,2.02-2.7,5.39-0.91,7.84c1.31,1.81,3.11,2.26,4.07,2.37c0.94,0.1,2.79,0.06,4.45-1.4
				C229.326,215.068,238.956,201.138,244.796,185.608z"/>
			<path d="M177.356,254.028c0.89,3.92-0.66,8-3.95,10.34l-43.3,30.78c-1.72,1.22-3.74,1.85-5.79,1.85c-1.2,0-2.4-0.22-3.55-0.66
				l-36.72-14.02c-3.45-1.31-5.89-4.43-6.34-8.1c-0.45-3.67,1.16-7.28,4.19-9.4l13.58-9.47c-56.31-26.6-84-92.33-61.95-150.98
				c6.99-18.6,18.54-35.3,33.41-48.3c5.42-4.74,12.65-6.99,19.81-6.19c7.17,0.8,13.73,4.61,17.98,10.44
				c7.91,10.86,6.23,25.74-3.9,34.61c-8.4,7.34-14.95,16.77-18.94,27.26c-12.26,32.16,1.57,68.07,31.04,84.78l-3.47-14.21
				c-0.88-3.6,0.32-7.4,3.1-9.85c2.78-2.45,6.69-3.16,10.15-1.83l36.72,14.02c3.12,1.19,5.43,3.85,6.17,7.11L177.356,254.028z
				 M156.426,251.958l-9.11-40.13l-13.97-5.33l3.69,15.15c0.88,3.61-0.31,7.4-3.09,9.85s-6.69,3.16-10.16,1.84l-8.27-3.16
				c-46.28-17.67-69.73-69.3-52.28-115.1c5.15-13.52,13.61-25.68,24.45-35.17c2.3-2.02,2.7-5.39,0.91-7.84
				c-1.32-1.81-3.12-2.26-4.07-2.36c-0.95-0.11-2.79-0.07-4.46,1.39c-12.39,10.83-22.03,24.76-27.86,40.29
				c-19.3,51.34,7.19,109.21,59.04,129.01l8.59,3.28c3.45,1.32,5.89,4.44,6.35,8.1c0.45,3.67-1.17,7.29-4.2,9.4l-13.22,9.22
				l14.13,5.4L156.426,251.958z"/>
		</g>
	</g>
</g>
<g>
</g>
<g>
</g>
<g>
</g>
<g>
</g>
<g>
</g>
<g>
</g>
<g>
</g>
<g>
</g>
<g>
</g>
<g>
</g>
<g>
</g>
<g>
</g>
<g>
</g>
<g>
</g>
<g>
</g>
</svg>
