<?xml version="1.0" encoding="iso-8859-1"?>
<!-- Generator: Adobe Illustrator 19.0.0, SVG Export Plug-In . SVG Version: 6.00 Build 0)  -->
<svg version="1.1" id="Layer_1" xmlns="http://www.w3.org/2000/svg" xmlns:xlink="http://www.w3.org/1999/xlink" x="0px" y="0px"
	 viewBox="0 0 297 297" style="enable-background:new 0 0 297 297;" xml:space="preserve">
<g>
	<g id="XMLID_20_">
		<g>
			<path style="fill:#FFCD02;" d="M209.64,178.43c15.45,15.46,15.45,40.6,0,56.05c-15.45,15.46-40.6,15.46-56.05,0
				c-15.45-15.45-15.45-40.59,0-56.05c7.73-7.72,17.88-11.59,28.02-11.59C191.76,166.84,201.91,170.71,209.64,178.43z
				 M215.06,206.46c0-5.54-4.49-10.03-10.03-10.03H158.2c-5.54,0-10.03,4.49-10.03,10.03s4.49,10.03,10.03,10.03h46.83
				C210.57,216.49,215.06,212,215.06,206.46z"/>
			<path style="fill:#3498DB;" d="M276.94,155.62c0,22.88-15.01,42.31-35.7,49c-0.44-14.67-6.24-29.2-17.41-40.38
				c-23.28-23.27-61.15-23.27-84.43,0c-11.81,11.81-17.62,27.38-17.44,42.89H71.58c-28.4,0-51.51-23.11-51.51-51.51
				s23.11-51.51,51.51-51.51c3.28,0,6.6,0.33,9.87,0.96c2.63,0.52,5.36-0.05,7.58-1.56c2.21-1.52,3.73-3.85,4.21-6.49
				c4.85-26.7,28.09-46.08,55.26-46.08c27.18,0,50.42,19.38,55.27,46.08c0.48,2.64,1.99,4.97,4.21,6.49
				c2.21,1.51,4.94,2.08,7.58,1.56c3.27-0.63,6.59-0.96,9.87-0.96C253.83,104.11,276.94,127.22,276.94,155.62z"/>
			<path d="M297,155.62c0,35.18-25.51,64.48-59,70.44c-2.86,8.26-7.58,16.02-14.17,22.61c-11.64,11.64-26.93,17.46-42.22,17.46
				c-15.28,0-30.57-5.82-42.21-17.46c-6.29-6.28-10.86-13.64-13.75-21.47H71.58C32.11,227.2,0,195.09,0,155.62
				s32.11-71.57,71.58-71.57c1.39,0,2.8,0.04,4.2,0.12c9.85-31.39,39.06-53.3,72.72-53.3s62.88,21.91,72.73,53.3
				c1.4-0.08,2.8-0.12,4.2-0.12C264.89,84.05,297,116.15,297,155.62z M241.24,204.62c20.69-6.69,35.7-26.12,35.7-49
				c0-28.4-23.11-51.51-51.51-51.51c-3.28,0-6.6,0.33-9.87,0.96c-2.64,0.52-5.37-0.05-7.58-1.56c-2.22-1.52-3.73-3.85-4.21-6.49
				c-4.85-26.7-28.09-46.08-55.27-46.08c-27.17,0-50.41,19.38-55.26,46.08c-0.48,2.64-2,4.97-4.21,6.49
				c-2.22,1.51-4.95,2.08-7.58,1.56c-3.27-0.63-6.59-0.96-9.87-0.96c-28.4,0-51.51,23.11-51.51,51.51s23.11,51.51,51.51,51.51h50.38
				c-0.18-15.51,5.63-31.08,17.44-42.89c23.28-23.27,61.15-23.27,84.43,0C235,175.42,240.8,189.95,241.24,204.62z M209.64,234.48
				c15.45-15.45,15.45-40.59,0-56.05c-7.73-7.72-17.88-11.59-28.03-11.59c-10.14,0-20.29,3.87-28.02,11.59
				c-15.45,15.46-15.45,40.6,0,56.05C169.04,249.94,194.19,249.94,209.64,234.48z"/>
			<path d="M205.03,196.43c5.54,0,10.03,4.49,10.03,10.03s-4.49,10.03-10.03,10.03H158.2c-5.54,0-10.03-4.49-10.03-10.03
				s4.49-10.03,10.03-10.03H205.03z"/>
		</g>
	</g>
</g>
<g>
</g>
<g>
</g>
<g>
</g>
<g>
</g>
<g>
</g>
<g>
</g>
<g>
</g>
<g>
</g>
<g>
</g>
<g>
</g>
<g>
</g>
<g>
</g>
<g>
</g>
<g>
</g>
<g>
</g>
</svg>
