<?xml version="1.0" encoding="iso-8859-1"?>
<!-- Generator: Adobe Illustrator 19.0.0, SVG Export Plug-In . SVG Version: 6.00 Build 0)  -->
<svg version="1.1" id="Layer_1" xmlns="http://www.w3.org/2000/svg" xmlns:xlink="http://www.w3.org/1999/xlink" x="0px" y="0px"
	 viewBox="0 0 297 297" style="enable-background:new 0 0 297 297;" xml:space="preserve">
<g>
	<g id="XMLID_20_">
		<g>
			<path style="fill:#D95459;" d="M181.61,166.81c21.86,0,39.64,17.78,39.64,39.64c0,21.85-17.78,39.63-39.64,39.63
				c-21.85,0-39.63-17.78-39.63-39.63C141.98,184.59,159.76,166.81,181.61,166.81z M205.27,196.98c3.91-3.91,3.91-10.27,0-14.19
				c-3.92-3.91-10.27-3.91-14.19,0l-9.47,9.47l-9.46-9.47c-3.92-3.91-10.27-3.91-14.19,0c-3.91,3.92-3.91,10.28,0,14.19l9.46,9.47
				l-9.46,9.46c-3.91,3.91-3.91,10.27,0,14.19c1.96,1.95,4.53,2.93,7.1,2.93s5.13-0.98,7.09-2.93l9.46-9.46l9.47,9.46
				c1.95,1.95,4.52,2.93,7.09,2.93c2.57,0,5.14-0.98,7.1-2.93c3.91-3.92,3.91-10.28,0-14.19l-9.46-9.46L205.27,196.98z"/>
			<path style="fill:#3498DB;" d="M276.94,155.61c0,22.87-15,42.29-35.67,48.99c-0.98-32.07-27.35-57.86-59.66-57.86
				c-32.91,0-59.7,26.79-59.7,59.71c0,0.22,0.02,0.44,0.02,0.66H71.58c-28.4,0-51.51-23.1-51.51-51.5s23.11-51.51,51.51-51.51
				c3.28,0,6.6,0.32,9.87,0.96c2.63,0.51,5.36-0.05,7.58-1.57c2.21-1.51,3.73-3.85,4.21-6.49c4.85-26.7,28.09-46.08,55.26-46.08
				c27.18,0,50.42,19.38,55.27,46.08c0.48,2.64,1.99,4.98,4.21,6.49c2.21,1.52,4.94,2.08,7.58,1.57c3.27-0.64,6.59-0.96,9.87-0.96
				C253.83,104.1,276.94,127.21,276.94,155.61z"/>
			<path d="M297,155.61c0,35.17-25.51,64.48-59.01,70.43c-8.13,23.32-30.32,40.11-56.38,40.11c-25.63,0-47.53-16.24-55.98-38.97
				H71.58C32.11,227.18,0,195.07,0,155.61c0-39.47,32.11-71.58,71.58-71.58c1.39,0,2.8,0.05,4.2,0.13
				c9.85-31.39,39.06-53.31,72.72-53.31s62.88,21.92,72.73,53.31c1.4-0.08,2.8-0.13,4.2-0.13C264.89,84.03,297,116.14,297,155.61z
				 M241.27,204.6c20.67-6.7,35.67-26.12,35.67-48.99c0-28.4-23.11-51.51-51.51-51.51c-3.28,0-6.6,0.32-9.87,0.96
				c-2.64,0.51-5.37-0.05-7.58-1.57c-2.22-1.51-3.73-3.85-4.21-6.49c-4.85-26.7-28.09-46.08-55.27-46.08
				c-27.17,0-50.41,19.38-55.26,46.08c-0.48,2.64-2,4.98-4.21,6.49c-2.22,1.52-4.95,2.08-7.58,1.57c-3.27-0.64-6.59-0.96-9.87-0.96
				c-28.4,0-51.51,23.11-51.51,51.51s23.11,51.5,51.51,51.5h50.35c0-0.22-0.02-0.44-0.02-0.66c0-32.92,26.79-59.71,59.7-59.71
				C213.92,146.74,240.29,172.53,241.27,204.6z M221.25,206.45c0-21.86-17.78-39.64-39.64-39.64c-21.85,0-39.63,17.78-39.63,39.64
				c0,21.85,17.78,39.63,39.63,39.63C203.47,246.08,221.25,228.3,221.25,206.45z"/>
			<path d="M205.27,182.79c3.91,3.92,3.91,10.28,0,14.19l-9.46,9.47l9.46,9.46c3.91,3.91,3.91,10.27,0,14.19
				c-1.96,1.95-4.53,2.93-7.1,2.93s-5.14-0.98-7.09-2.93l-9.47-9.46l-9.46,9.46c-1.96,1.95-4.52,2.93-7.09,2.93
				c-2.57,0-5.14-0.98-7.1-2.93c-3.91-3.92-3.91-10.28,0-14.19l9.46-9.46l-9.46-9.47c-3.91-3.91-3.91-10.27,0-14.19
				c3.92-3.91,10.27-3.91,14.19,0l9.46,9.47l9.47-9.47C195,178.88,201.35,178.88,205.27,182.79z"/>
		</g>
	</g>
</g>
<g>
</g>
<g>
</g>
<g>
</g>
<g>
</g>
<g>
</g>
<g>
</g>
<g>
</g>
<g>
</g>
<g>
</g>
<g>
</g>
<g>
</g>
<g>
</g>
<g>
</g>
<g>
</g>
<g>
</g>
</svg>
