<?xml version="1.0" encoding="iso-8859-1"?>
<!-- Generator: Adobe Illustrator 19.0.0, SVG Export Plug-In . SVG Version: 6.00 Build 0)  -->
<svg version="1.1" id="Layer_1" xmlns="http://www.w3.org/2000/svg" xmlns:xlink="http://www.w3.org/1999/xlink" x="0px" y="0px"
	 viewBox="0 0 297 297" style="enable-background:new 0 0 297 297;" xml:space="preserve">
<g>
	<g id="XMLID_50_">
		<g>
			<path style="fill:#345F41;" d="M44.97,124.45c13.26,0,24.05,10.79,24.05,24.05s-10.79,24.05-24.05,24.05
				s-24.05-10.79-24.05-24.05S31.71,124.45,44.97,124.45z"/>
			<path style="fill:#27AE60;" d="M148.5,124.45c13.27,0,24.06,10.79,24.06,24.05s-10.79,24.05-24.06,24.05
				c-13.26,0-24.05-10.79-24.05-24.05S135.24,124.45,148.5,124.45z"/>
			<path style="fill:#2ECC71;" d="M252.03,124.45c13.27,0,24.06,10.79,24.06,24.05s-10.79,24.05-24.06,24.05
				c-13.26,0-24.05-10.79-24.05-24.05S238.77,124.45,252.03,124.45z"/>
			<path d="M252.03,103.53c24.8,0,44.97,20.17,44.97,44.97s-20.17,44.97-44.97,44.97c-24.79,0-44.96-20.17-44.96-44.97
				S227.24,103.53,252.03,103.53z M276.09,148.5c0-13.26-10.79-24.05-24.06-24.05c-13.26,0-24.05,10.79-24.05,24.05
				s10.79,24.05,24.05,24.05C265.3,172.55,276.09,161.76,276.09,148.5z"/>
			<path d="M148.5,103.53c24.8,0,44.97,20.17,44.97,44.97s-20.17,44.97-44.97,44.97c-24.79,0-44.97-20.17-44.97-44.97
				S123.71,103.53,148.5,103.53z M172.56,148.5c0-13.26-10.79-24.05-24.06-24.05c-13.26,0-24.05,10.79-24.05,24.05
				s10.79,24.05,24.05,24.05C161.77,172.55,172.56,161.76,172.56,148.5z"/>
			<path d="M44.97,103.53c24.8,0,44.97,20.17,44.97,44.97s-20.17,44.97-44.97,44.97C20.18,193.47,0,173.3,0,148.5
				S20.18,103.53,44.97,103.53z M69.02,148.5c0-13.26-10.79-24.05-24.05-24.05s-24.05,10.79-24.05,24.05s10.79,24.05,24.05,24.05
				S69.02,161.76,69.02,148.5z"/>
		</g>
	</g>
</g>
<g>
</g>
<g>
</g>
<g>
</g>
<g>
</g>
<g>
</g>
<g>
</g>
<g>
</g>
<g>
</g>
<g>
</g>
<g>
</g>
<g>
</g>
<g>
</g>
<g>
</g>
<g>
</g>
<g>
</g>
</svg>
