<?xml version="1.0" encoding="iso-8859-1"?>
<!-- Generator: Adobe Illustrator 19.0.0, SVG Export Plug-In . SVG Version: 6.00 Build 0)  -->
<svg version="1.1" id="Layer_1" xmlns="http://www.w3.org/2000/svg" xmlns:xlink="http://www.w3.org/1999/xlink" x="0px" y="0px"
	 viewBox="0 0 297 297" style="enable-background:new 0 0 297 297;" xml:space="preserve">
<g>
	<g id="XMLID_46_">
		<g>
			<path style="fill:#FFA800;" d="M165.129,44.69c33.21,33.2,33.21,87.23,0,120.44c-16.6,16.6-38.4,24.9-60.21,24.9
				s-43.62-8.3-60.22-24.9c-16.09-16.09-24.95-37.48-24.95-60.22c0-22.75,8.86-44.14,24.95-60.22
				c16.08-16.09,37.47-24.95,60.22-24.95C127.659,19.74,149.049,28.6,165.129,44.69z M156.217,156.21
				c28.29-28.29,28.29-74.32,0-102.61c-13.71-13.7-31.93-21.25-51.3-21.25c-19.38,0-37.6,7.55-51.31,21.25
				c-3.85,3.86-3.85,10.11,0,13.96c3.86,3.86,10.11,3.86,13.96,0c9.98-9.97,23.24-15.47,37.35-15.47c14.1,0,27.36,5.5,37.34,15.47
				c20.59,20.59,20.59,54.1,0,74.69c-3.86,3.85-3.86,10.1,0,13.96c1.93,1.93,4.45,2.89,6.98,2.89
				C151.758,159.1,154.288,158.14,156.217,156.21z"/>
			<path style="fill:#8E725E;" d="M275.099,264.61c2.88,2.89,2.88,7.59,0,10.48c-1.4,1.4-3.26,2.17-5.24,2.17
				c-1.98,0-3.84-0.77-5.24-2.17l-90.95-90.95c1.85-1.61,3.66-3.29,5.43-5.05c1.76-1.77,3.44-3.58,5.05-5.43L275.099,264.61z"/>
			<path d="M289.058,250.65c10.58,10.59,10.58,27.81,0,38.4c-5.13,5.13-11.95,7.95-19.2,7.95s-14.07-2.82-19.2-7.95l-93.29-93.29
				c-16.17,9.33-34.31,14-52.45,14c-26.87,0-53.73-10.22-74.18-30.67c-19.82-19.82-30.73-46.16-30.73-74.18
				c0-28.03,10.91-54.37,30.73-74.18C50.548,10.91,76.888,0,104.918,0c28.02,0,54.36,10.91,74.18,30.73
				c34.26,34.26,39.81,86.53,16.67,126.63L289.058,250.65z M275.099,275.09c2.88-2.89,2.88-7.59,0-10.48l-90.95-90.95
				c-1.61,1.85-3.29,3.66-5.05,5.43c-1.77,1.76-3.58,3.44-5.43,5.05l90.95,90.95c1.4,1.4,3.26,2.17,5.24,2.17
				C271.838,277.26,273.699,276.49,275.099,275.09z M165.129,165.13c33.21-33.21,33.21-87.24,0-120.44
				c-16.08-16.09-37.47-24.95-60.21-24.95c-22.75,0-44.14,8.86-60.22,24.95c-16.09,16.08-24.95,37.47-24.95,60.22
				c0,22.74,8.86,44.13,24.95,60.22c16.6,16.6,38.41,24.9,60.22,24.9S148.527,181.73,165.129,165.13z"/>
			<path d="M156.217,53.6c28.29,28.29,28.29,74.32,0,102.61c-1.93,1.93-4.46,2.89-6.98,2.89c-2.53,0-5.05-0.96-6.98-2.89
				c-3.86-3.86-3.86-10.11,0-13.96c20.59-20.59,20.59-54.1,0-74.69c-9.98-9.97-23.24-15.47-37.34-15.47
				c-14.11,0-27.37,5.5-37.35,15.47c-3.85,3.86-10.1,3.86-13.96,0c-3.85-3.85-3.85-10.1,0-13.96c13.71-13.7,31.93-21.25,51.31-21.25
				C124.288,32.35,142.508,39.9,156.217,53.6z"/>
		</g>
	</g>
</g>
<g>
</g>
<g>
</g>
<g>
</g>
<g>
</g>
<g>
</g>
<g>
</g>
<g>
</g>
<g>
</g>
<g>
</g>
<g>
</g>
<g>
</g>
<g>
</g>
<g>
</g>
<g>
</g>
<g>
</g>
</svg>
