<?xml version="1.0" encoding="iso-8859-1"?>
<!-- Generator: Adobe Illustrator 19.0.0, SVG Export Plug-In . SVG Version: 6.00 Build 0)  -->
<svg version="1.1" id="Layer_1" xmlns="http://www.w3.org/2000/svg" xmlns:xlink="http://www.w3.org/1999/xlink" x="0px" y="0px"
	 viewBox="0 0 297 297" style="enable-background:new 0 0 297 297;" xml:space="preserve">
<g>
	<g id="XMLID_43_">
		<g>
			<path style="fill:#D95459;" d="M207.545,162.05c22.26,0,40.38,18.11,40.38,40.38s-18.12,40.38-40.38,40.38
				c-22.27,0-40.39-18.11-40.39-40.38S185.275,162.05,207.545,162.05z M231.635,192.79c4-3.99,4-10.47,0-14.46
				c-3.99-3.99-10.46-3.99-14.46,0l-9.63,9.64l-9.64-9.64c-4-3.99-10.47-3.99-14.46,0c-4,3.99-4,10.47,0,14.46l9.64,9.64l-9.64,9.64
				c-4,3.99-4,10.47,0,14.46c1.99,1.99,4.61,2.99,7.23,2.99c2.61,0,5.23-1,7.23-2.99l9.64-9.64l9.63,9.64
				c2,1.99,4.62,2.99,7.23,2.99c2.62,0,5.24-1,7.23-2.99c4-3.99,4-10.47,0-14.46l-9.64-9.64L231.635,192.79z"/>
			<path style="fill:#16A085;" d="M231.055,65.69v8.43H49.075v-8.43c0-6.32,5.14-11.47,11.46-11.47h159.06
				C225.915,54.22,231.055,59.37,231.055,65.69z"/>
			<path style="fill:#1ABC9C;" d="M213.295,94.57l-3.92,47.08c-0.61-0.02-1.22-0.05-1.83-0.05c-33.55,0-60.84,27.29-60.84,60.83
				c0,30.65,22.79,56.06,52.31,60.22c-2.07,8-9.4,13.9-17.89,13.9h-82.12c-9.54,0-17.63-7.44-18.42-16.95L66.825,94.57H213.295z"/>
			<path d="M229.555,145.74c22.69,8.84,38.82,30.91,38.82,56.69c0,29.33-20.87,53.87-48.53,59.58
				c-2.01,19.68-18.87,34.99-38.72,34.99h-82.12c-20.09,0-37.13-15.68-38.8-35.7l-13.9-166.73h-7.46c-5.64,0-10.22-4.58-10.22-10.22
				V65.69c0-17.6,14.32-31.91,31.91-31.91h35.57v-4.73c0-16.02,13.03-29.05,29.05-29.05h29.82c16.02,0,29.05,13.03,29.05,29.05v4.73
				h35.57c17.59,0,31.91,14.31,31.91,31.91v18.66c0,5.64-4.58,10.22-10.23,10.22h-7.46L229.555,145.74z M247.925,202.43
				c0-22.27-18.12-40.38-40.38-40.38c-22.27,0-40.39,18.11-40.39,40.38s18.12,40.38,40.39,40.38
				C229.805,242.81,247.925,224.7,247.925,202.43z M231.055,74.12v-8.43c0-6.32-5.14-11.47-11.46-11.47H60.535
				c-6.32,0-11.46,5.15-11.46,11.47v8.43H231.055z M209.375,141.65l3.92-47.08H66.825l13.76,165.03
				c0.79,9.51,8.88,16.95,18.42,16.95h82.12c8.49,0,15.82-5.9,17.89-13.9c-29.52-4.16-52.31-29.57-52.31-60.22
				c0-33.54,27.29-60.83,60.84-60.83C208.155,141.6,208.765,141.63,209.375,141.65z M163.575,33.78v-4.73c0-4.74-3.86-8.6-8.6-8.6
				h-29.82c-4.75,0-8.61,3.86-8.61,8.6v4.73H163.575z"/>
			<path d="M231.635,178.33c4,3.99,4,10.47,0,14.46l-9.64,9.64l9.64,9.64c4,3.99,4,10.47,0,14.46c-1.99,1.99-4.61,2.99-7.23,2.99
				c-2.61,0-5.23-1-7.23-2.99l-9.63-9.64l-9.64,9.64c-2,1.99-4.62,2.99-7.23,2.99c-2.62,0-5.24-1-7.23-2.99c-4-3.99-4-10.47,0-14.46
				l9.64-9.64l-9.64-9.64c-4-3.99-4-10.47,0-14.46c3.99-3.99,10.46-3.99,14.46,0l9.64,9.64l9.63-9.64
				C221.175,174.34,227.645,174.34,231.635,178.33z"/>
		</g>
	</g>
</g>
<g>
</g>
<g>
</g>
<g>
</g>
<g>
</g>
<g>
</g>
<g>
</g>
<g>
</g>
<g>
</g>
<g>
</g>
<g>
</g>
<g>
</g>
<g>
</g>
<g>
</g>
<g>
</g>
<g>
</g>
</svg>
